<svg width="15" height="44" viewBox="0 0 15 44" fill="none" xmlns="http://www.w3.org/2000/svg">
<rect width="15" height="44" fill="#1E1E1E"/>
<rect id="Rectangle 12097" x="-5524" y="-962" width="13585" height="14720" fill="white"/>
<g id="Apple Web">
<path d="M-628 -97.9999C-628 -99.1045 -627.105 -100 -626 -100H2816C2817.1 -100 2818 -99.1046 2818 -98V5633C2818 5634.1 2817.1 5635 2816 5635H-626C-627.105 5635 -628 5634.1 -628 5633V-97.9999Z" fill="#151515"/>
<path d="M-626 -99H2816V-101H-626V-99ZM2817 -98V5633H2819V-98H2817ZM2816 5634H-626V5636H2816V5634ZM-627 5633V-97.9999H-629V5633H-627ZM-626 5634C-626.552 5634 -627 5633.55 -627 5633H-629C-629 5634.66 -627.657 5636 -626 5636V5634ZM2817 5633C2817 5633.55 2816.55 5634 2816 5634V5636C2817.66 5636 2819 5634.66 2819 5633H2817ZM2816 -99C2816.55 -99 2817 -98.5523 2817 -98H2819C2819 -99.6568 2817.66 -101 2816 -101V-99ZM-626 -101C-627.657 -101 -629 -99.6568 -629 -97.9999H-627C-627 -98.5523 -626.552 -99 -626 -99V-101Z" fill="white" fill-opacity="0.1"/>
<g id="1920Web">
<rect width="1920" height="4982" transform="translate(-528)" fill="white"/>
<g id="Body paints">
<rect width="1920" height="4981.64" transform="translate(-528)" fill="url(#paint0_linear_0_1)"/>
</g>
<g id="HeaderMenu">
<rect width="1920" height="44" transform="translate(-528)" fill="#F5F5F7" fill-opacity="0.8"/>
<g id="Item &#226;&#134;&#146; Link - Apple">
<g id="SVG">
<path id="Vector" d="M13.5728 17.6828C13.0519 18.0017 12.6205 18.4475 12.3188 18.9786C12.0172 19.5096 11.8552 20.1086 11.848 20.7193C11.8501 21.4066 12.0537 22.0783 12.4337 22.651C12.8137 23.2238 13.3534 23.6725 13.9859 23.9416C13.7365 24.7462 13.3675 25.5086 12.8911 26.2034C12.2095 27.1846 11.4968 28.1657 10.4124 28.1657C9.32802 28.1657 9.04912 27.5357 7.79942 27.5357C6.58072 27.5357 6.14692 28.1864 5.15542 28.1864C4.16392 28.1864 3.47202 27.2775 2.67672 26.1621C1.62618 24.5995 1.04883 22.767 1.01392 20.8845C1.01392 17.7861 3.02792 16.144 5.01082 16.144C6.06432 16.144 6.94222 16.8359 7.60322 16.8359C8.23322 16.8359 9.21442 16.1026 10.4124 16.1026C11.0284 16.0867 11.6388 16.2225 12.1899 16.4981C12.741 16.7736 13.216 17.1805 13.5728 17.6828ZM9.84442 14.791C10.3725 14.1697 10.6715 13.3861 10.6913 12.571C10.6922 12.4635 10.6818 12.3563 10.6603 12.251C9.75317 12.3396 8.91432 12.772 8.31582 13.4594C7.78262 14.0559 7.47242 14.8186 7.43792 15.6179C7.43832 15.7151 7.4487 15.812 7.46892 15.9071C7.54043 15.9206 7.61304 15.9275 7.68582 15.9278C8.10389 15.8945 8.51083 15.7766 8.88191 15.5812C9.25299 15.3857 9.58046 15.1169 9.84442 14.791Z" fill="black" fill-opacity="0.8"/>
</g>
</g>
</g>
</g>
</g>
<defs>
<linearGradient id="paint0_linear_0_1" x1="960" y1="0" x2="960" y2="4981.64" gradientUnits="userSpaceOnUse">
<stop offset="0.00585368" stop-color="#F5F5F7"/>
<stop offset="0.00585368" stop-color="white"/>
</linearGradient>
</defs>
</svg>
