<svg width="68" height="15" viewBox="0 0 68 15" fill="none" xmlns="http://www.w3.org/2000/svg">
<g id="SVG">
<path id="Vector" d="M20.7098 11.29H15.8198L14.6469 14.7586H12.5749L17.2069 1.92745H19.3578L23.9898 14.7586H21.8828L20.7098 11.29ZM16.3272 9.69008H20.2024L18.2903 4.06129H18.2376L16.3272 9.69008ZM25.0819 5.40307H26.9133V6.99423H26.9572C27.268 5.90009 28.1038 5.25203 29.2065 5.25203C29.4821 5.25203 29.7227 5.29594 29.8649 5.32404V7.1119C29.7139 7.05043 29.3768 7.00477 29.0028 7.00477C27.7667 7.00477 27.0029 7.83196 27.0029 9.15618V14.7586H25.0819V5.40307ZM36.8884 8.62228C36.6935 7.62648 35.9455 6.83441 34.6935 6.83441C33.2081 6.83441 32.2318 8.07081 32.2318 10.08C32.2318 12.1348 33.2186 13.3255 34.7128 13.3255C35.8945 13.3255 36.6689 12.6757 36.8901 11.5921H38.739C38.5336 13.5837 36.9428 14.936 34.6935 14.936C32.0176 14.936 30.2758 13.1042 30.2758 10.0817C30.2758 7.1119 32.0176 5.23623 34.676 5.23623C37.085 5.23623 38.5512 6.78348 38.7215 8.62403L36.8884 8.62228ZM39.7258 12.0997C39.7258 10.4628 40.9795 9.45825 43.2024 9.33356L45.7625 9.18252V8.46246C45.7625 7.42276 45.0602 6.79929 43.8872 6.79929C42.7758 6.79929 42.0822 7.33319 41.9136 8.16916H40.0998C40.2069 6.47965 41.6468 5.23447 43.9575 5.23447C46.2243 5.23447 47.6729 6.43399 47.6729 8.31142V14.7586H45.8327V13.2201H45.7888C45.2463 14.2598 44.0646 14.9184 42.8372 14.9184C41.0059 14.9184 39.7258 13.7804 39.7258 12.0997ZM45.7625 11.2549V10.5173L43.4606 10.6595C42.314 10.7403 41.6643 11.2461 41.6643 12.047C41.6643 12.8654 42.3403 13.3993 43.371 13.3993C44.7125 13.3975 45.7625 12.4737 45.7625 11.2549ZM49.0231 10.0817C49.0231 7.12946 50.5876 5.25379 52.9352 5.25379C54.2767 5.25379 55.3442 5.92994 55.8692 6.96086H55.9044V1.92745H57.834V14.7586H55.9658V13.1675H55.9307C55.3794 14.2335 54.3135 14.9184 52.9528 14.9184C50.5876 14.9184 49.0231 13.0322 49.0231 10.0817ZM50.9879 10.0817C50.9879 12.0557 51.9396 13.2921 53.4602 13.2921C54.9351 13.2921 55.9219 12.0382 55.9219 10.0817C55.9219 8.14282 54.9351 6.87129 53.4602 6.87129C51.9396 6.87129 50.9879 8.11648 50.9879 10.0817ZM67.6528 12.0101C67.3859 13.7172 65.7688 14.936 63.6266 14.936C60.8805 14.936 59.2177 13.0779 59.2177 10.1256C59.2177 7.19093 60.9068 5.23447 63.5476 5.23447C66.1428 5.23447 67.7617 7.06624 67.7617 9.90258V10.5612H61.1561V10.6771C61.1561 12.3034 62.1342 13.38 63.6723 13.38C64.7662 13.38 65.5739 12.8285 65.832 12.0101C65.8302 12.0101 67.6528 12.0101 67.6528 12.0101ZM61.1632 9.21764H65.839C65.7951 7.7863 64.8873 6.78173 63.5459 6.78173C62.2044 6.78173 61.2615 7.80386 61.1632 9.21764ZM7.727 3.17966C8.20635 2.57902 8.53294 1.7729 8.4469 0.949219C7.74456 0.984344 6.8877 1.41287 6.39079 2.01351C5.9448 2.52809 5.55149 3.36758 5.65333 4.15789C6.44171 4.22638 7.23009 3.76273 7.727 3.17966ZM8.43812 4.31068C7.2933 4.24219 6.3188 4.96049 5.77273 4.96049C5.2249 4.96049 4.38735 4.34405 3.48308 4.36161C2.3049 4.37918 1.21099 5.04479 0.612245 6.10557C-0.618615 8.22712 0.287411 11.3743 1.48491 13.1007C2.0661 13.956 2.76669 14.8974 3.68852 14.8622C4.56118 14.8289 4.90182 14.2967 5.96236 14.2967C7.02114 14.2967 7.32842 14.8622 8.252 14.8447C9.20895 14.8271 9.8077 13.9894 10.3889 13.1341C11.0561 12.1594 11.3283 11.218 11.3458 11.1671C11.3283 11.1495 9.50042 10.4488 9.48286 8.34479C9.4653 6.58327 10.9192 5.74554 10.9859 5.69285C10.1641 4.48279 8.88236 4.34581 8.43812 4.31068Z" fill="black"/>
</g>
</svg>
