<svg width="78" height="14" viewBox="0 0 78 14" fill="none" xmlns="http://www.w3.org/2000/svg">
<g id="SVG">
<path id="Vector" d="M13.6669 13.7499V1.06435H21.588V2.76074H15.6359V6.7786H21.0862V8.44026H15.6359V13.7499H13.6669ZM22.9146 2.05753C22.9146 1.45155 23.4059 0.96712 24.0137 0.96712C24.6196 0.96712 25.1128 1.45155 25.1128 2.05753C25.1128 2.65483 24.6214 3.14794 24.0137 3.14794C23.4059 3.14794 22.9146 2.65656 22.9146 2.05753ZM23.0639 4.50228H24.9634V13.7499H23.0639V4.50228ZM29.655 2.31277V4.50228H31.4121V6.00593H29.655V11.1038C29.655 11.9042 30.0057 12.2636 30.7801 12.2636C30.9729 12.2636 31.2819 12.2463 31.4035 12.2202V13.7239C31.1934 13.776 30.7714 13.8125 30.3478 13.8125C28.476 13.8125 27.745 13.1006 27.745 11.3156V6.00593H26.3994V4.50228H27.745V2.31277H29.655ZM33.0061 4.50228H34.8171V6.04934H34.8605C35.3623 4.99366 36.3468 4.34427 37.7706 4.34427C39.8107 4.34427 40.9793 5.64478 40.9793 7.7631V13.7499H39.0711V8.13293C39.0711 6.74387 38.4199 5.97989 37.1021 5.97989C35.7651 5.97989 34.9039 6.92966 34.9039 8.36213V13.7517H33.0044V4.50228H33.0061ZM50.5586 11.0326C50.2947 12.7203 48.6955 13.9253 46.5772 13.9253C43.8616 13.9253 42.2173 12.0883 42.2173 9.16952C42.2173 6.26812 43.8876 4.33385 46.4991 4.33385C49.0654 4.33385 50.6662 6.14484 50.6662 8.94901V9.60013H44.1342V9.71472C44.1342 11.3226 45.1013 12.3869 46.6223 12.3869C47.7041 12.3869 48.5045 11.8417 48.758 11.0326H50.5586ZM44.1411 8.27358H48.765C48.7216 6.85847 47.8239 5.86529 46.4973 5.86529C45.169 5.86529 44.2366 6.87583 44.1411 8.27358ZM55.5158 4.33559C57.6688 4.33559 59.0666 5.53192 59.1291 7.23699H57.3442C57.2382 6.34105 56.5802 5.77848 55.5158 5.77848C54.4879 5.77848 53.8021 6.28027 53.8021 7.01821C53.8021 7.59815 54.224 7.99403 55.2258 8.22322L56.7295 8.56528C58.6203 9.00457 59.3409 9.74251 59.3409 11.0795C59.3409 12.7672 57.7678 13.927 55.587 13.927C53.2742 13.927 51.8852 12.7932 51.7098 11.0343H53.5902C53.7656 12.0015 54.4254 12.4755 55.5853 12.4755C56.7278 12.4755 57.431 12.0015 57.431 11.2444C57.431 10.6471 57.0889 10.2947 56.0766 10.0655L54.573 9.71472C52.8141 9.31016 51.9442 8.46631 51.9442 7.12066C51.9477 5.46941 53.3888 4.33559 55.5158 4.33559ZM64.1037 4.33559C66.2567 4.33559 67.6545 5.53192 67.717 7.23699H65.932C65.8261 6.34105 65.168 5.77848 64.1037 5.77848C63.0758 5.77848 62.3899 6.28027 62.3899 7.01821C62.3899 7.59815 62.8118 7.99403 63.8137 8.22322L65.3174 8.56528C67.2082 9.00457 67.9288 9.74251 67.9288 11.0795C67.9288 12.7672 66.3557 13.927 64.1749 13.927C61.8621 13.927 60.473 12.7932 60.2976 11.0343H62.1781C62.3534 12.0015 63.0133 12.4755 64.1731 12.4755C65.3156 12.4755 66.0188 12.0015 66.0188 11.2444C66.0188 10.6471 65.6768 10.2947 64.6645 10.0655L63.1608 9.71472C61.4019 9.31016 60.532 8.46631 60.532 7.12066C60.5338 5.46941 61.9767 4.33559 64.1037 4.33559ZM74.3463 13.7621H72.6151V9.99427H69.0279V8.28052H72.6151V4.51443H74.3463V8.28052H77.9422V9.99427H74.3463V13.7621ZM7.63664 2.30409C8.1176 1.72242 8.44056 0.913293 8.35201 0.109375C7.66095 0.137156 6.82404 0.569501 6.32745 1.15117C5.88295 1.66512 5.49228 2.48988 5.5982 3.27817C6.36912 3.3372 7.15742 2.88576 7.63664 2.30409ZM8.33464 3.43096C7.20256 3.34762 6.24237 4.06299 5.70758 4.06299C5.16411 4.06299 4.32547 3.44833 3.43821 3.46569C2.2714 3.48305 1.19661 4.14459 0.594107 5.18986C-0.617848 7.29255 0.285041 10.4093 1.46574 12.1161C2.04394 12.9495 2.73152 13.8906 3.63615 13.8559C4.50605 13.8211 4.83595 13.2933 5.88816 13.2933C6.94037 13.2933 7.23729 13.8559 8.15754 13.8402C9.09515 13.8229 9.68898 12.9894 10.262 12.1508C10.9252 11.1837 11.1978 10.246 11.2135 10.1957C11.1926 10.187 9.38686 9.49421 9.36949 7.41409C9.35387 5.6743 10.7898 4.83912 10.8541 4.79745C10.038 3.59592 8.77914 3.46395 8.33464 3.43096Z" fill="black"/>
</g>
</svg>
