<svg width="16" height="44" viewBox="0 0 16 44" fill="none" xmlns="http://www.w3.org/2000/svg">
<rect width="16" height="44" fill="#1E1E1E"/>
<rect id="Rectangle 12097" x="-6318" y="-962" width="13585" height="14720" fill="white"/>
<g id="Apple Web">
<path d="M-1422 -97.9999C-1422 -99.1045 -1421.1 -100 -1420 -100H2022C2023.1 -100 2024 -99.1046 2024 -98V5633C2024 5634.1 2023.1 5635 2022 5635H-1420C-1421.1 5635 -1422 5634.1 -1422 5633V-97.9999Z" fill="#151515"/>
<path d="M-1420 -99H2022V-101H-1420V-99ZM2023 -98V5633H2025V-98H2023ZM2022 5634H-1420V5636H2022V5634ZM-1421 5633V-97.9999H-1423V5633H-1421ZM-1420 5634C-1420.55 5634 -1421 5633.55 -1421 5633H-1423C-1423 5634.66 -1421.66 5636 -1420 5636V5634ZM2023 5633C2023 5633.55 2022.55 5634 2022 5634V5636C2023.66 5636 2025 5634.66 2025 5633H2023ZM2022 -99C2022.55 -99 2023 -98.5523 2023 -98H2025C2025 -99.6568 2023.66 -101 2022 -101V-99ZM-1420 -101C-1421.66 -101 -1423 -99.6568 -1423 -97.9999H-1421C-1421 -98.5523 -1420.55 -99 -1420 -99V-101Z" fill="white" fill-opacity="0.1"/>
<g id="1920Web">
<rect width="1920" height="4982" transform="translate(-1322)" fill="white"/>
<g id="Body paints">
<rect width="1920" height="4981.64" transform="translate(-1322)" fill="url(#paint0_linear_0_1)"/>
</g>
<g id="HeaderMenu">
<rect width="1920" height="44" transform="translate(-1322)" fill="#F5F5F7" fill-opacity="0.8"/>
<g id="Item &#226;&#134;&#146; Button - Search apple.com">
<g id="SVG">
<path id="Vector" d="M14.798 27.2022L10.928 23.3322C11.629 22.4032 12.05 21.2512 12.05 20.0002C12.05 16.9402 9.56095 14.4502 6.49995 14.4502C3.43995 14.4502 0.949951 16.9402 0.949951 20.0002C0.949951 23.0612 3.43995 25.5502 6.49995 25.5502C7.75095 25.5502 8.90295 25.1292 9.83195 24.4282L13.702 28.2982C13.853 28.4492 14.052 28.5262 14.25 28.5262C14.448 28.5262 14.646 28.4502 14.798 28.2982C15.101 27.9952 15.101 27.5052 14.798 27.2022ZM2.04995 20.0002C2.04995 17.5462 4.04695 15.5502 6.49995 15.5502C8.95395 15.5502 10.95 17.5472 10.95 20.0002C10.95 22.4532 8.95395 24.4502 6.49995 24.4502C4.04595 24.4502 2.04995 22.4542 2.04995 20.0002Z" fill="black" fill-opacity="0.8"/>
</g>
</g>
</g>
</g>
</g>
<defs>
<linearGradient id="paint0_linear_0_1" x1="960" y1="0" x2="960" y2="4981.64" gradientUnits="userSpaceOnUse">
<stop offset="0.00585368" stop-color="#F5F5F7"/>
<stop offset="0.00585368" stop-color="white"/>
</linearGradient>
</defs>
</svg>
